PathFileType	4	(X/Y/Z)	/Users/rkoike/Documents/python/sports2d/webcam_20251024_144952/webcam_20251024_144952_px_person00.trc
DataRate	CameraRate	NumFrames	NumMarkers	Units	OrigDataRate	OrigDataStartFrame	OrigNumFrames
30	30	6	22	m	30	360	962
Frame#	Time	Hip			RHip			RKnee			RAnkle			RBigToe			RSmallToe			RHeel			LHip			LKnee			LAnkle			LBigToe			LSmallToe			LHeel			Neck			Head			Nose			RShoulder			RElbow			RWrist			LShoulder			LElbow			LWrist			
		X1	Y1	Z1	X2	Y2	Z2	X3	Y3	Z3	X4	Y4	Z4	X5	Y5	Z5	X6	Y6	Z6	X7	Y7	Z7	X8	Y8	Z8	X9	Y9	Z9	X10	Y10	Z10	X11	Y11	Z11	X12	Y12	Z12	X13	Y13	Z13	X14	Y14	Z14	X15	Y15	Z15	X16	Y16	Z16	X17	Y17	Z17	X18	Y18	Z18	X19	Y19	Z19	X20	Y20	Z20	X21	Y21	Z21	X22	Y22	Z22
360	12.012486992715923	533.0150775741577	817.0225503037843	0.0	425.5056781873224	808.4439670333694	0.0	243.48333415469895	855.8054948040137	0.0	181.40581050550895	715.0871150593762	0.0			0.0			0.0			0.0	640.0651989379703	808.4439669340128	0.0	853.2984559484643	163.2795315461133	0.0	709.9612833264594	273.4706758332129	0.0	513.93505859375	710.3623046875	0.0	836.0301041541002	273.4706758332129	0.0			0.0	576.4542622697057	356.95402532921327	0.0	518.1125012070805	100.286302934692	0.0	500.0759915188615	232.90561681137345	0.0	403.4273074042237	450.4250986518543	0.0	308.3619450670234	690.4823062837097	0.0	273.455665001091	702.7368328089772	0.0	780.2627695775589	421.52115344341007	0.0	821.992780529071	677.0877231235626	0.0	563.6399337347566	551.6653814901416	0.0
361	12.045855012140132	540.4881192282038	808.6295256471426	0.0	427.6194788815583	798.8843852864659	0.0	302.5088664856553	780.2686443335332	0.0	181.40581050550895	715.0871150593762	0.0			0.0			0.0			0.0	652.8082837952463	798.8843852213096	0.0	831.3435896553735	196.52044395874472	0.0	709.9612833264594	273.4706758332129	0.0	513.93505859375	710.3623046875	0.0	836.0301041541002	273.4706758332129	0.0			0.0	575.2429506412653	358.9421284368509	0.0	516.9021150757956	101.83963425073982	0.0	495.1181824062633	235.26326490056013	0.0	397.22154249917844	450.51797493624247	0.0	294.4936043619595	696.7189646933653	0.0	277.42863345005225	706.6735884955847	0.0	785.5539128732637	429.6583569311978	0.0	839.654512868129	692.1415186959463	0.0	587.2903949985836	604.1585605574504	0.0
362	12.079223031564343	548.3194640918837	799.1550368128421	0.0	430.0903055612458	788.4400856050648	0.0	370.10003424636085	731.8777045899669	0.0	181.40581050550895	715.0871150593762	0.0			0.0			0.0			0.0	666.4358796595295	788.4400856004434	0.0	738.999345241551	336.33486593664196	0.0	709.9612833264594	273.4706758332129	0.0	513.93505859375	710.3623046875	0.0	836.0301041541002	273.4706758332129	0.0			0.0	574.0803171957075	360.93492992667717	0.0	515.4866043630456	103.2660886614612	0.0	489.7329904358229	237.45866766330144	0.0	391.0000407609424	450.65773245705947	0.0	280.72376364583715	703.0597409987843	0.0	281.7189226642974	710.9809704869048	0.0	790.9429949656529	437.47599867739444	0.0	856.1796293803596	706.7967581186792	0.0	610.0397129173962	654.9651044037724	0.0
363	12.112591050988554	553.7050232607816	792.8100183004619	0.0	431.7277572546425	781.3637741491373	0.0	417.63362023762846	698.9018285023958	0.0	181.40581050550895	715.0871150593762	0.0			0.0			0.0			0.0	675.748027831149	781.3637741601882	0.0	605.4655464984509	538.5126086242502	0.0	709.9612833264594	273.4706758332129	0.0	513.93505859375	710.3623046875	0.0	836.0301041541002	273.4706758332129	0.0			0.0	573.2488157581987	362.3257689982165	0.0	514.5525915923859	104.2938298234853	0.0	486.0628519260354	239.03321033082824	0.0	386.6505532068012	450.7489729808977	0.0	271.07047762044743	707.4762033931027	0.0	284.6417395452667	713.8981346350805	0.0	794.6906008226836	443.0253548578049	0.0	868.0269608489098	717.1576229989881	0.0	626.1756719429882	690.937080804138	0.0
364	12.145959070412765	555.8222438680727	790.4364544379548	0.0	432.32697055257006	778.6573888051605	0.0	436.2871995729449	683.6438900336456	0.0	181.40581050550895	715.0871150593762	0.0			0.0			0.0			0.0	679.3638862264506	778.6573888101491	0.0	513.1213020846283	678.3270306021475	0.0	709.9612833264594	273.4706758332129	0.0	513.93505859375	710.3623046875	0.0	836.0301041541002	273.4706758332129	0.0			0.0	572.9008849343843	362.88774400250014	0.0	514.2125667567439	104.732199582946	0.0	484.64805838763516	239.69947764882022	0.0	384.89039535574153	450.77958378578177	0.0	267.14273119906824	709.2499094538799	0.0	285.7699025888447	715.0128589685706	0.0	796.192588168338	445.3312929811363	0.0	873.0315570140166	721.4306509073015	0.0	632.8735910564253	705.8177317001249	0.0
365	12.179327089836976	555.85930321329	790.4509133388502	0.0	432.316770317269	778.6450364014237	0.0	436.54003684513395	682.1259387434935	0.0	181.40581050550895	715.0871150593762	0.0			0.0			0.0			0.0	679.4060980963114	778.6450364011032	0.0	491.1664357915375	711.567943014779	0.0	709.9612833264594	273.4706758332129	0.0	513.93505859375	710.3623046875	0.0	836.0301041541002	273.4706758332129	0.0			0.0	572.885163242692	362.90467782506863	0.0	514.2191450995073	104.7558730357377	0.0	484.63662812979686	239.73314737629218	0.0	384.83630528055534	450.77754738420134	0.0	267.01227300309944	709.2981549388882	0.0	285.7798727121126	715.0174795971931	0.0	796.2321188509537	445.4293884780607	0.0	873.2803469391563	721.5980424649342	0.0	633.1555307972505	706.421219290292	0.0
